<svg xmlns="http://www.w3.org/2000/svg" viewBox="0 0 2314.64 526.39"><defs><style>.cls-1,.cls-4{fill:#f49749;}.cls-1{opacity:0.34;}.cls-2,.cls-3{fill:#fcc13a;}.cls-2{opacity:0.31;}.cls-5{fill:#eb5a40;}.cls-6{font-size:381.44px;fill:#fff;font-family:MyriadPro-BoldIt, Myriad Pro;font-weight:700;font-style:italic;}.cls-7{letter-spacing:-0.01em;}.cls-8{letter-spacing:0em;}.cls-9{letter-spacing:0.01em;}.cls-10{letter-spacing:0em;}.cls-11{fill:#4a4a4a;}.cls-12,.cls-13{fill:none;stroke:#4a4a4a;}.cls-12{stroke-width:19px;}.cls-13{stroke-width:13px;}</style></defs><title>BrandWithName</title><g id="BG"><circle class="cls-1" cx="252.02" cy="252.02" r="252.02"/><circle class="cls-2" cx="255.69" cy="252.02" r="211.64"/><path class="cls-3" d="M1253.92,248.08A179.05,179.05,0,0,0,1098.05,70.54a12.6,12.6,0,0,0-6.68,11.12v5.21A12.62,12.62,0,0,0,1104,99.49h26.48a12.6,12.6,0,0,1,12.61,12.61v5.21a12.62,12.62,0,0,0,12.62,12.62h21.55a12.61,12.61,0,0,1,12.61,12.61v5.21a12.62,12.62,0,0,1-12.61,12.62H1117A12.61,12.61,0,0,0,1104.37,173v5.21A12.61,12.61,0,0,0,1117,190.8h52a12.62,12.62,0,0,1,12.62,12.62v5.21A12.61,12.61,0,0,1,1169,221.24h-77.77a12.61,12.61,0,0,0-12.61,12.62v5.21a12.61,12.61,0,0,0,12.61,12.61h64.07a12.62,12.62,0,0,1,12.61,12.61v6.21a12.62,12.62,0,0,1-12.61,12.62h-46.33a12.61,12.61,0,0,0-12.61,12.61v5.21a12.61,12.61,0,0,0,12.61,12.61h14.87a12.62,12.62,0,0,1,12.62,12.62v4.22A12.61,12.61,0,0,0,1149,343a12.61,12.61,0,0,1,12.61,12.61v5.21A12.61,12.61,0,0,1,1149,373.44h-32a12.61,12.61,0,0,0-12.62,12.61v5.21a12.61,12.61,0,0,1-12.61,12.62h-.58a12.6,12.6,0,0,0-12.61,12.61v5.21a12.55,12.55,0,0,0,1.2,5.34A179,179,0,0,0,1253.92,248.08Z" transform="translate(-822.87)"/><path class="cls-4" d="M1177.25,129.93H1155.7a12.62,12.62,0,0,1-12.62-12.62V112.1a12.6,12.6,0,0,0-12.61-12.61H1104a12.62,12.62,0,0,1-12.62-12.62V81.66a12.6,12.6,0,0,1,6.68-11.12,180.56,180.56,0,0,0-23.16-1.49,178.18,178.18,0,0,0-91.05,24.86,14.72,14.72,0,0,1,14.44,14.71v1A14.73,14.73,0,0,0,1013,124.34h35.88a14.72,14.72,0,0,1,14.72,14.72v1a14.73,14.73,0,0,1-14.72,14.73h-56a14.72,14.72,0,0,0-14.72,14.72v1a14.72,14.72,0,0,0,14.72,14.72h47.75a14.73,14.73,0,0,1,14.72,14.73v1a14.72,14.72,0,0,1-14.72,14.72H967a14.72,14.72,0,0,0-14.72,14.73v1A14.72,14.72,0,0,0,967,246.09h42.11a14.72,14.72,0,0,1,14.72,14.72v2a14.73,14.73,0,0,1-14.72,14.73H947.56a14.72,14.72,0,1,0,0,29.44h47.87a14.72,14.72,0,0,1,14.72,14.72v1a14.72,14.72,0,0,0,14.72,14.72h35.3a14.72,14.72,0,0,1,14.72,14.72v1a14.72,14.72,0,0,1-14.72,14.72H1013a14.72,14.72,0,0,0-14.72,14.72v1a14.72,14.72,0,0,1-14.72,14.73h-6.11a178.16,178.16,0,0,0,97.44,28.82c1.63,0,3.26,0,4.88-.07a12.55,12.55,0,0,1-1.2-5.34v-5.21a12.6,12.6,0,0,1,12.61-12.61h.58a12.61,12.61,0,0,0,12.61-12.62v-5.21A12.61,12.61,0,0,1,1117,373.44h32a12.61,12.61,0,0,0,12.61-12.62v-5.21A12.61,12.61,0,0,0,1149,343a12.61,12.61,0,0,1-12.61-12.61v-4.22a12.62,12.62,0,0,0-12.62-12.62h-14.87a12.61,12.61,0,0,1-12.61-12.61v-5.21a12.61,12.61,0,0,1,12.61-12.61h46.33a12.62,12.62,0,0,0,12.61-12.62v-6.21a12.62,12.62,0,0,0-12.61-12.61h-64.07a12.61,12.61,0,0,1-12.61-12.61v-5.21a12.61,12.61,0,0,1,12.61-12.62H1169a12.61,12.61,0,0,0,12.62-12.61v-5.21A12.62,12.62,0,0,0,1169,190.8h-52a12.61,12.61,0,0,1-12.62-12.61V173A12.61,12.61,0,0,1,1117,160.37h60.26a12.62,12.62,0,0,0,12.61-12.62v-5.21A12.61,12.61,0,0,0,1177.25,129.93Z" transform="translate(-822.87)"/><path class="cls-5" d="M998.28,383.56v-1A14.72,14.72,0,0,1,1013,367.85h47.17a14.72,14.72,0,0,0,14.72-14.72v-1a14.72,14.72,0,0,0-14.72-14.72h-35.3a14.72,14.72,0,0,1-14.72-14.72v-1A14.72,14.72,0,0,0,995.43,307H947.56a14.72,14.72,0,1,1,0-29.44h61.58a14.73,14.73,0,0,0,14.72-14.73v-2a14.72,14.72,0,0,0-14.72-14.72H967a14.72,14.72,0,0,1-14.72-14.72v-1A14.72,14.72,0,0,1,967,215.65h73.56a14.72,14.72,0,0,0,14.72-14.72v-1a14.73,14.73,0,0,0-14.72-14.73H992.84a14.72,14.72,0,0,1-14.72-14.72v-1a14.72,14.72,0,0,1,14.72-14.72h56a14.73,14.73,0,0,0,14.72-14.73v-1a14.72,14.72,0,0,0-14.72-14.72H1013a14.73,14.73,0,0,1-14.72-14.73v-1a14.72,14.72,0,0,0-14.44-14.71,179.07,179.07,0,0,0-6.39,304.38h6.11A14.72,14.72,0,0,0,998.28,383.56Z" transform="translate(-822.87)"/><text class="cls-6" transform="translate(523.44 431.03)">I<tspan class="cls-7" x="104.51" y="0">cc</tspan><tspan class="cls-8" x="428.73" y="0">essbili</tspan><tspan class="cls-9" x="1454.02" y="0">t</tspan><tspan class="cls-10" x="1590.18" y="0">y</tspan></text></g><g id="BrandSvg"><path class="cls-11" d="M1152.19,288.72h0a6.31,6.31,0,0,1,6.31,6.3v28.81a6.32,6.32,0,0,1-6.31,6.31h0a6.31,6.31,0,0,1-6.3-6.31V295A6.3,6.3,0,0,1,1152.19,288.72Z" transform="translate(-822.87)"/><path class="cls-12" d="M1117.08,281.92a64.42,64.42,0,1,1-64.42-64.42" transform="translate(-822.87)"/><path class="cls-12" d="M1090.26,282.21a37.9,37.9,0,1,1-37.89-37.9" transform="translate(-822.87)"/><rect class="cls-11" x="242.39" y="166.38" width="19.61" height="100.14" rx="7"/><rect class="cls-11" x="267.6" y="166.38" width="19.61" height="100.14" rx="7"/><circle class="cls-11" cx="264.8" cy="132.76" r="22.41"/><rect class="cls-11" x="271.8" y="251.11" width="80.53" height="15.41" rx="7"/><path class="cls-11" d="M1129,288.92h0a7,7,0,0,1,7-7h32.21a7,7,0,0,1,7,7h0a7,7,0,0,1-7,7H1136A7,7,0,0,1,1129,288.92Z" transform="translate(-822.87)"/><circle class="cls-13" cx="329.32" cy="338.84" r="11.35"/></g></svg>