<svg id="BrandSvg" xmlns="http://www.w3.org/2000/svg" viewBox="0 0 3084.89 655.27"><defs><style>.cls-1,.cls-4{fill:#f49749;}.cls-1{opacity:0.34;}.cls-2,.cls-3{fill:#fcc13a;}.cls-2{opacity:0.31;}.cls-5{fill:#eb5a40;}.cls-6{fill:#4a4a4a;}.cls-7,.cls-8{fill:none;stroke:#4a4a4a;}.cls-7{stroke-width:19px;}.cls-8{stroke-width:13px;}.cls-9{font-size:500px;fill:#f6f6f6;font-family:MyriadPro-BoldIt, Myriad Pro;font-weight:700;font-style:italic;}.cls-10{letter-spacing:-0.01em;}.cls-11{letter-spacing:0.01em;}</style></defs><title>BrandWithNameOrange</title><circle class="cls-1" cx="288.22" cy="288.22" r="288.22"/><circle class="cls-2" cx="292.43" cy="288.22" r="242.05"/><path class="cls-3" d="M1285.8,322.31c0-104.1-77.7-190.06-178.27-203A14.43,14.43,0,0,0,1099.9,132v6a14.43,14.43,0,0,0,14.42,14.42h30.29A14.43,14.43,0,0,1,1159,166.8v6a14.42,14.42,0,0,0,14.42,14.42h24.65a14.43,14.43,0,0,1,14.42,14.43v6A14.43,14.43,0,0,1,1198.11,222h-68.92a14.41,14.41,0,0,0-14.42,14.42v6a14.42,14.42,0,0,0,14.42,14.43h59.44a14.43,14.43,0,0,1,14.42,14.42v6a14.43,14.43,0,0,1-14.42,14.42h-89a14.43,14.43,0,0,0-14.43,14.43v6a14.43,14.43,0,0,0,14.43,14.42H1173a14.43,14.43,0,0,1,14.42,14.43V348A14.43,14.43,0,0,1,1173,362.38h-53a14.43,14.43,0,0,0-14.43,14.43v6A14.42,14.42,0,0,0,1120,397.19h17a14.43,14.43,0,0,1,14.42,14.43v4.82a14.43,14.43,0,0,0,14.43,14.43,14.43,14.43,0,0,1,14.42,14.42v6a14.43,14.43,0,0,1-14.42,14.42h-36.64a14.42,14.42,0,0,0-14.42,14.43v6a14.43,14.43,0,0,1-14.43,14.42h-.66a14.43,14.43,0,0,0-14.43,14.43v6a14.36,14.36,0,0,0,1.37,6.11C1197.13,524,1285.8,433.53,1285.8,322.31Z" transform="translate(-792.82 -38.59)"/><path class="cls-4" d="M1198.11,187.18h-24.65A14.42,14.42,0,0,1,1159,172.76v-6a14.43,14.43,0,0,0-14.43-14.43h-30.29A14.43,14.43,0,0,1,1099.9,138v-6a14.43,14.43,0,0,1,7.63-12.73,206.63,206.63,0,0,0-26.48-1.7A203.75,203.75,0,0,0,976.92,146a16.83,16.83,0,0,1,16.51,16.82V164a16.84,16.84,0,0,0,16.83,16.84h41a16.83,16.83,0,0,1,16.83,16.84v1.14a16.83,16.83,0,0,1-16.83,16.83H987.21a16.84,16.84,0,0,0-16.84,16.84v1.14a16.84,16.84,0,0,0,16.84,16.84h54.61a16.83,16.83,0,0,1,16.83,16.83v1.14a16.84,16.84,0,0,1-16.83,16.84H957.69a16.83,16.83,0,0,0-16.83,16.83v1.14A16.83,16.83,0,0,0,957.69,320h48.16a16.84,16.84,0,0,1,16.83,16.84v2.27A16.84,16.84,0,0,1,1005.85,356H935.43a16.84,16.84,0,1,0,0,33.67h54.74A16.84,16.84,0,0,1,1007,406.5v1.14a16.84,16.84,0,0,0,16.84,16.84h40.37a16.83,16.83,0,0,1,16.84,16.83v1.14a16.84,16.84,0,0,1-16.84,16.84h-54a16.84,16.84,0,0,0-16.83,16.83v1.14a16.84,16.84,0,0,1-16.84,16.84h-7a203.74,203.74,0,0,0,111.44,33c1.86,0,3.72,0,5.57-.08a14.36,14.36,0,0,1-1.37-6.11v-6a14.43,14.43,0,0,1,14.43-14.43h.66a14.43,14.43,0,0,0,14.43-14.42v-6a14.42,14.42,0,0,1,14.42-14.43h36.64a14.43,14.43,0,0,0,14.42-14.42v-6a14.43,14.43,0,0,0-14.42-14.42,14.43,14.43,0,0,1-14.43-14.43v-4.82A14.43,14.43,0,0,0,1137,397.19h-17a14.42,14.42,0,0,1-14.43-14.42v-6A14.43,14.43,0,0,1,1120,362.38h53A14.43,14.43,0,0,0,1187.37,348v-7.1A14.43,14.43,0,0,0,1173,326.43h-73.27A14.43,14.43,0,0,1,1085.25,312v-6a14.43,14.43,0,0,1,14.43-14.43h89a14.43,14.43,0,0,0,14.42-14.42v-6a14.43,14.43,0,0,0-14.42-14.42h-59.44a14.42,14.42,0,0,1-14.42-14.43v-6A14.41,14.41,0,0,1,1129.19,222h68.92a14.43,14.43,0,0,0,14.42-14.43v-6A14.43,14.43,0,0,0,1198.11,187.18Z" transform="translate(-792.82 -38.59)"/><path class="cls-5" d="M993.43,477.26v-1.14a16.84,16.84,0,0,1,16.83-16.83h54a16.84,16.84,0,0,0,16.84-16.84v-1.14a16.83,16.83,0,0,0-16.84-16.83h-40.37A16.84,16.84,0,0,1,1007,407.64V406.5a16.84,16.84,0,0,0-16.83-16.84H935.43a16.84,16.84,0,1,1,0-33.67h70.42a16.84,16.84,0,0,0,16.83-16.84v-2.27A16.84,16.84,0,0,0,1005.85,320H957.69a16.83,16.83,0,0,1-16.83-16.84v-1.14a16.83,16.83,0,0,1,16.83-16.83h84.13a16.84,16.84,0,0,0,16.83-16.84v-1.14a16.83,16.83,0,0,0-16.83-16.83H987.21a16.84,16.84,0,0,1-16.84-16.84v-1.14a16.84,16.84,0,0,1,16.84-16.84h64.09a16.83,16.83,0,0,0,16.83-16.83v-1.14a16.83,16.83,0,0,0-16.83-16.84h-41A16.84,16.84,0,0,1,993.43,164v-1.13A16.83,16.83,0,0,0,976.92,146a204.77,204.77,0,0,0-7.31,348.1h7A16.84,16.84,0,0,0,993.43,477.26Z" transform="translate(-792.82 -38.59)"/><path class="cls-6" d="M1165.85,368.79h0a7.21,7.21,0,0,1,7.21,7.21V409a7.21,7.21,0,0,1-7.21,7.21h0a7.2,7.2,0,0,1-7.2-7.21V376A7.2,7.2,0,0,1,1165.85,368.79Z" transform="translate(-792.82 -38.59)"/><path class="cls-7" d="M1125.7,361A73.68,73.68,0,1,1,1052,287.33" transform="translate(-792.82 -38.59)"/><path class="cls-7" d="M1095,361.35A43.34,43.34,0,1,1,1051.68,318" transform="translate(-792.82 -38.59)"/><rect class="cls-6" x="273.61" y="190.28" width="22.42" height="114.52" rx="8.01"/><rect class="cls-6" x="302.44" y="190.28" width="22.42" height="114.52" rx="8.01"/><circle class="cls-6" cx="299.24" cy="151.84" r="25.63"/><rect class="cls-6" x="307.24" y="287.18" width="92.1" height="17.62" rx="8.01"/><path class="cls-6" d="M1139.31,369h0a8,8,0,0,1,8-8h36.84a8,8,0,0,1,8,8h0a8,8,0,0,1-8,8h-36.84A8,8,0,0,1,1139.31,369Z" transform="translate(-792.82 -38.59)"/><circle class="cls-8" cx="373.03" cy="387.52" r="12.99"/><text class="cls-9" transform="translate(604.43 530.27)">I<tspan class="cls-10" x="136.99" y="0">cc</tspan><tspan x="562" y="0">essibili</tspan><tspan class="cls-11" x="2038.48" y="0">t</tspan><tspan x="2216.96" y="0">y</tspan></text></svg>