<svg id="Слой_1" data-name="Слой 1" xmlns="http://www.w3.org/2000/svg" viewBox="0 0 2811.95 1388.13"><defs><style>.cls-1{fill:#ebf3fa;}.cls-2{fill:#2e3552;}.cls-3,.cls-7{fill:#233862;}.cls-4{fill:#ffb27d;}.cls-5{fill:#f9ddbf;}.cls-6{fill:#eac3a2;}.cls-7,.cls-8{opacity:0.2;}.cls-7{isolation:isolate;}.cls-9{fill:#f99746;}.cls-10{fill:#2d53a0;}.cls-11{fill:#ed985f;}.cls-12{fill:#2b478b;}.cls-13{fill:#1a3670;}.cls-14{fill:#ed7d2b;}.cls-15{fill:#fff;}.cls-16{fill:#163560;}.cls-17{fill:#e8945b;}.cls-18{fill:#1c468a;}.cls-19{fill:#b64c41;}.cls-20{fill:#ed975d;}.cls-21{fill:#a9453d;}.cls-22{fill:#466aa5;}.cls-23{fill:#ef7e29;}</style></defs><title>landing</title><path class="cls-1" d="M290.19,1684.23c0-26-280.84-909.2,137.49-1191.38,685.53-462.41,1125.57,69.81,1303.11,124.34C2177.41,754.34,2348.41,437,2697.14,541.9c393.8,118.43,366.92,850.21,186,1146.93Z" transform="translate(-197.94 -305.47)"/><rect class="cls-2" x="5.55" y="1380.84" width="2779.48" height="7.29" rx="3.13"/><path class="cls-3" d="M1656,1124.3a4.83,4.83,0,0,1-4.38-2.79l-16.25-34.88h-53.9a4.83,4.83,0,1,1,0-9.66h57a4.83,4.83,0,0,1,4.38,2.79l17.55,37.67a4.83,4.83,0,0,1-2.34,6.41A4.73,4.73,0,0,1,1656,1124.3Z" transform="translate(-197.94 -305.47)"/><path class="cls-3" d="M1621.45,1089.08H1580a7.33,7.33,0,0,1-7.3-7.29h0a7.32,7.32,0,0,1,7.3-7.3h41.41a7.32,7.32,0,0,1,7.3,7.3h0A7.32,7.32,0,0,1,1621.45,1089.08Z" transform="translate(-197.94 -305.47)"/><path class="cls-4" d="M1579.31,1066.65c1.35,1,25.38-2,33.11,2.86s15.16,18.41,11.69,23.25-19.9-9.68-24.74-9.43-18.71-4-18.71-4Z" transform="translate(-197.94 -305.47)"/><path class="cls-5" d="M1586.65,1064.73s2.51,4.37,2.47,8.18c-.08,6.42-2.47,9.48-2.47,9.48a306,306,0,0,1-60.35-2.2c-17.39-2.51-35.47-7.14-49.62-15.46-19.22-11.3-37.07-51.53-50.36-89.94-14.09-40.72-23-79.4-23-79.4,6.54-15.84,23.86-25.38,38.43-23,8,1.28,26.72,7.44,31,13,6.5,8.54,24.85,86.49,39.26,123.38C1515.1,1016.84,1586.65,1064.73,1586.65,1064.73Z" transform="translate(-197.94 -305.47)"/><path class="cls-6" d="M1526.3,1080.19c-17.39-2.51-35.47-7.14-49.62-15.46-19.22-11.3-37.07-51.53-50.36-89.94-.21-27.74-.21-50.64-.21-50.64l31.47,13.05c1,1.93,11.12,97.16,33.83,116.49C1510.71,1070.11,1523,1078.14,1526.3,1080.19Z" transform="translate(-197.94 -305.47)"/><rect class="cls-7" x="1717.39" y="1014.36" width="15.13" height="316.21"/><g class="cls-8"><path class="cls-3" d="M1949.75,1659.51a26.85,26.85,0,1,0-26.85,26.86,26.85,26.85,0,0,0,26.85-26.86Z" transform="translate(-197.94 -305.47)"/><path class="cls-9" d="M1913.68,1659.51a9.22,9.22,0,1,1,9.22,9.22h0A9.22,9.22,0,0,1,1913.68,1659.51Z" transform="translate(-197.94 -305.47)"/></g><path class="cls-3" d="M1540.8,1124.3a4.84,4.84,0,0,1-4.38-2.79l-16.25-34.88h-53.89a4.83,4.83,0,1,1,0-9.66h57a4.84,4.84,0,0,1,4.38,2.79l17.54,37.67a4.84,4.84,0,0,1-4.37,6.87Z" transform="translate(-197.94 -305.47)"/><g class="cls-8"><path class="cls-10" d="M1748.37,1673.5c-1.12-5,55.86-205.36,62.36-228.18l1.86.53c-17.47,61.3-62.7,221.65-62.33,227.28Z" transform="translate(-197.94 -305.47)"/><path class="cls-10" d="M1665.93,1528c5-1.12,205.36,55.86,228.18,62.36l-.53,1.86c-61.31-17.47-221.65-62.7-227.29-62.33Z" transform="translate(-197.94 -305.47)"/><path class="cls-10" d="M1686.91,1486.45c5.08.91,167.94,130.71,186.5,145.51l-1.21,1.51c-49.83-39.75-180.34-143.3-185.69-145.13Z" transform="translate(-197.94 -305.47)"/><path class="cls-10" d="M1898.75,1544.46c-4.83-1.81-211.1,26.92-234.6,30.2l.26,1.92c63.13-8.82,228.19-31.45,233.72-30.3Z" transform="translate(-197.94 -305.47)"/><path class="cls-10" d="M1735.27,1451.16c4,3.32,80.57,197,89.29,219l-1.8.71c-23.43-59.28-85-214.07-88.77-218.32Z" transform="translate(-197.94 -305.47)"/><path class="cls-10" d="M1873.3,1489c-5.1.84-169.67,128.46-188.42,143l1.18,1.53c50.36-39.08,182.24-140.89,187.61-142.64Z" transform="translate(-197.94 -305.47)"/><circle class="cls-9" cx="1580.14" cy="1256.95" r="16.09"/><path class="cls-3" d="M1651.58,1559.87a126.5,126.5,0,1,1,126.5,126.5A126.51,126.51,0,0,1,1651.58,1559.87Zm13.52,0a113,113,0,1,0,113-113h0A113.1,113.1,0,0,0,1665.1,1559.87Z" transform="translate(-197.94 -305.47)"/></g><path class="cls-3" d="M1506.22,1089.08h-41.4a7.31,7.31,0,0,1-7.3-7.29h0a7.32,7.32,0,0,1,7.3-7.3h41.4a7.32,7.32,0,0,1,7.3,7.3h0A7.31,7.31,0,0,1,1506.22,1089.08Z" transform="translate(-197.94 -305.47)"/><path class="cls-11" d="M1871.83,1290.62s23.42,2.41,26.32,5.63,13.51,20.81,13.84,24.08.08,9.31-2.34,8.35-12.53-17.06-17.66-17.3-21.54-7.11-21.54-7.11Z" transform="translate(-197.94 -305.47)"/><polygon class="cls-12" points="1649.37 1110.25 1431.48 1112.49 1333.45 806.08 1534.99 803.84 1649.37 1110.25"/><path class="cls-11" d="M1777,1124.92s4.32,112.66,14.81,123.87c6.78,7.24,80,41.83,80,41.83l-.74,13.81s-95.3-13.49-109.35-30.49c-27.73-33.56-29.56-125-30.9-134.75S1757.35,1110,1777,1124.92Z" transform="translate(-197.94 -305.47)"/><path class="cls-13" d="M1991.47,1601.56h-72.93s-2.73-11.63,2.06-19.55c4.24-7,2.61-11-.52-16.78a28.46,28.46,0,0,0,12.28,2.31c3.63-.21,7.47-1.86,10.84-3.81,3.14,3.57,16.58,18.81,20.78,21.82C1968.75,1589,1990,1587.76,1991.47,1601.56Z" transform="translate(-197.94 -305.47)"/><path class="cls-14" d="M1655.24,1334.86c4.85,29.21,30.75,50.24,60.35,49.88,36.72-.44,90.35-1.17,110-1.91,41.67-1.57,57.32.11,57.2,1.29-1.87,17.5-3.41,10,16,8.67,0,0,68.66-1.94,48.12-48.91s-215.6-61.61-232.84-59.57C1699.42,1286,1647.71,1289.61,1655.24,1334.86Z" transform="translate(-197.94 -305.47)"/><path class="cls-14" d="M1950.65,1362.31c-.88,33.2-6,125.22,6.9,199.12,3.28,18.74-23.61,19.32-23.8,19.34-5.11.61-14.08,1-17.06-2.65-20.75-25.75-50-145.22-42.07-194.83,3.88-24.19,28-23.76,47.47-32.68C1934.09,1345.12,1951,1349.12,1950.65,1362.31Z" transform="translate(-197.94 -305.47)"/><rect class="cls-3" x="1393.36" y="1007.31" width="15.13" height="252.36"/><path class="cls-3" d="M1707.13,923.47a67.16,67.16,0,0,1,61.14,13.71,179.85,179.85,0,0,1,23.35,23.8c19,23.6-13.31,49.9-8.35,58s15.75,14.07,12.2,31.74-32.26,42-42,43.56c-98.58,15.89-144.76-36.31-113.31-67.69s15.47-73.35,41.43-91.51A82.71,82.71,0,0,1,1707.13,923.47Z" transform="translate(-197.94 -305.47)"/><path class="cls-4" d="M1780.24,1116.8c-7.87,6.16-17.89,11.45-30.63,15.17-47.75,14-68.65-25.87-77.23-53.55a41.69,41.69,0,0,1,16.11-6c3.47-.61,7.14-1.1,10.17-1.43,5.2-4.47,12.32-22,12.59-48.52l2.31.47,38.74,8.25s-1,12.23-1.25,23.74c-.14,9,.24,17.58,2.06,19.58,2.67.75,5.06,1.57,5.06,1.57.58.85.61.47.42.18A237.57,237.57,0,0,1,1780.24,1116.8Z" transform="translate(-197.94 -305.47)"/><path class="cls-11" d="M1752.3,1031.22s-1,12.21-1.24,23.73c-21.74-.92-33-20.92-37.5-32Z" transform="translate(-197.94 -305.47)"/><path class="cls-4" d="M1759.41,1042.23s-51.45.12-51-31.93-5.94-53.61,26.93-55,39.09,10.88,41.56,21.61S1772.8,1041.37,1759.41,1042.23Z" transform="translate(-197.94 -305.47)"/><path class="cls-3" d="M1775.58,959c-7.82-9.75-13.85-7.72-17.26-4.87-27.9-15.85-46.34,6.74-46.34,6.74a61,61,0,0,1-20.54,35.88s9.51,6.75,31,.68c27.48-7.78,35.65-32.46,36.74-36.25,3.1,2.87,7,4.58,10.27,11,3.89,7.62,6.31,12,7.11,24.86C1776.55,997.06,1787.3,973.66,1775.58,959Z" transform="translate(-197.94 -305.47)"/><rect class="cls-3" x="1634.16" y="1294.95" width="182.88" height="14.83"/><path class="cls-9" d="M1632.83,1334.86c4.86,29.21,30.75,50.24,60.35,49.88,36.72-.44,90.35-1.17,110-1.91,41.67-1.57,57.33.11,57.2,1.29-1.87,17.5-3.41,10,16,8.67,0,0,68.65-1.94,48.11-48.91s-215.6-61.61-232.84-59.57C1677,1286,1625.31,1289.61,1632.83,1334.86Z" transform="translate(-197.94 -305.47)"/><path class="cls-5" d="M1632.61,1237.35c3.5-23.91-5-114.45,13.9-142.75,13.68-20.46,32.65-28.53,56.06-28.92,7.53,4.28,36.24,20.41,47.49,17.55l.62-.19c5.28-1.65,7.09-5.53,2.43-8.51,0,0,19.18,4.14,25.14,10.9,5.72,6.5,5.46,20.44,7.29,36.87.45,4.07.52,8.17,1,12.24,2.26,18.48-3.7,20.48-24.06,73.81-10,26.07-5.29,46.89,1.35,60.75a27.14,27.14,0,0,1-9.87,34.73c-40.2,25.45-118.38,69.73-121.14,31C1630,1295.59,1627.78,1270.38,1632.61,1237.35Z" transform="translate(-197.94 -305.47)"/><path class="cls-4" d="M1700.84,1121.43s19.32,131.1,32.19,142.21c8.32,7.17,91,20.48,91,20.48l1.36,12.75s-118,8.66-124.71-1.18c-27.24-39.75-46.3-142.58-48.93-153.12S1677.49,1107.28,1700.84,1121.43Z" transform="translate(-197.94 -305.47)"/><path class="cls-12" d="M1969.06,1600.58h-72.93s-2.72-11.63,2.06-19.55c4.24-7,2.62-11-.52-16.79a28.29,28.29,0,0,0,12.28,2.32c3.64-.21,7.48-1.86,10.85-3.82,3.14,3.58,16.58,18.81,20.78,21.83C1946.34,1588,1967.59,1586.78,1969.06,1600.58Z" transform="translate(-197.94 -305.47)"/><path class="cls-9" d="M1928.24,1362.31c-.88,33.2-6,125.22,6.91,199.12,3.28,18.74-23.62,19.32-23.81,19.34-5.11.61-14.07,1-17.06-2.65-20.74-25.75-50-145.22-42.07-194.83,3.89-24.19,28-23.76,47.48-32.68C1911.68,1345.12,1928.59,1349.12,1928.24,1362.31Z" transform="translate(-197.94 -305.47)"/><path class="cls-15" d="M1768,1023.32s-5-1.64-18.54.25c0,0,1,5.29,11.12,5.23C1766.26,1028.77,1768,1023.32,1768,1023.32Z" transform="translate(-197.94 -305.47)"/><path class="cls-5" d="M1719.19,1160.75s-35,30.3-75.61,20c0,0-14.65-97.82,36.24-99.17C1679.82,1081.53,1722,1098.24,1719.19,1160.75Z" transform="translate(-197.94 -305.47)"/><rect class="cls-3" x="1408.49" y="1092.49" width="244.45" height="19.25"/><rect class="cls-3" x="1770.93" y="1386.97" width="20.19" height="239.25" transform="translate(-712.62 786.89) rotate(-30)"/><path class="cls-10" d="M1606.42,1398c4.46,0,21.44-16,48.07-15.14s175.24,0,175.24,0,19.4-2,21.22,15.18Z" transform="translate(-197.94 -305.47)"/><rect class="cls-3" x="1631.8" y="1014.36" width="15.13" height="316.21"/><path class="cls-4" d="M1824,1284.12s26.16,1.51,29,4.73,13.52,20.81,13.84,24.08.08,9.31-2.33,8.34-12.43-18.34-17.56-18.58-21.64-5.82-21.64-5.82Z" transform="translate(-197.94 -305.47)"/><path class="cls-3" d="M1581.8,1328.78H1867a31.7,31.7,0,0,0-31.7-31.7H1600.68A18.88,18.88,0,0,0,1581.8,1316v12.82Z" transform="translate(-197.94 -305.47)"/><path class="cls-10" d="M1569.15,1673.5c-1.12-5,55.86-205.36,62.36-228.18l1.86.53c-17.46,61.3-62.7,221.65-62.32,227.28Z" transform="translate(-197.94 -305.47)"/><path class="cls-10" d="M1486.72,1528c5-1.12,205.35,55.86,228.17,62.36l-.53,1.86c-61.3-17.47-221.65-62.7-227.28-62.33Z" transform="translate(-197.94 -305.47)"/><path class="cls-10" d="M1507.69,1486.45c5.09.91,167.94,130.71,186.5,145.51l-1.21,1.51c-49.83-39.75-180.34-143.3-185.69-145.13Z" transform="translate(-197.94 -305.47)"/><path class="cls-10" d="M1719.54,1544.46c-4.84-1.81-211.11,26.92-234.61,30.2l.27,1.92c63.13-8.82,228.19-31.45,233.72-30.3Z" transform="translate(-197.94 -305.47)"/><path class="cls-10" d="M1556.05,1451.16c4,3.32,80.57,197,89.29,219l-1.8.71c-23.42-59.28-85-214.07-88.77-218.32Z" transform="translate(-197.94 -305.47)"/><path class="cls-10" d="M1694.08,1489c-5.1.84-169.67,128.46-188.42,143l1.18,1.53c50.36-39.08,182.24-140.89,187.61-142.64Z" transform="translate(-197.94 -305.47)"/><path class="cls-9" d="M1582.77,1562.43a16.09,16.09,0,1,1,16.09,16.09h0A16.09,16.09,0,0,1,1582.77,1562.43Z" transform="translate(-197.94 -305.47)"/><path class="cls-3" d="M1472.37,1559.87a126.49,126.49,0,1,1,126.49,126.5A126.49,126.49,0,0,1,1472.37,1559.87Zm13.51,0a113,113,0,1,0,113-113h0A113.1,113.1,0,0,0,1485.88,1559.87Z" transform="translate(-197.94 -305.47)"/><path class="cls-3" d="M1864.15,1659.51a26.85,26.85,0,1,0-26.85,26.86,26.85,26.85,0,0,0,26.85-26.86Z" transform="translate(-197.94 -305.47)"/><path class="cls-9" d="M1828.08,1659.51a9.22,9.22,0,1,1,9.22,9.22h0A9.22,9.22,0,0,1,1828.08,1659.51Z" transform="translate(-197.94 -305.47)"/><path class="cls-16" d="M1327.28,912.78c-3.62-7,79-32.12,80.28,36.78,0,0,154.71-3.8,80.84-90-25.58-29.85-22.94-54.53-22.18-77.51s-15.93-89.76-73.19-83c0,0-15-6.1-33.72,3.61C1316.75,724.66,1221.4,938.19,1327.28,912.78Z" transform="translate(-197.94 -305.47)"/><path class="cls-3" d="M1222.6,1608.06s-17.33,15.82-13.95,27.07,19,18.73,21.14,32.47,10.57,21.23,18.18,21.23h36.29s5.6-9.66-7.93-12.58-18.63-19.06-17.79-34-1.26-35-1.26-35l-28.76-6.66Z" transform="translate(-197.94 -305.47)"/><path class="cls-3" d="M1369.34,1614.78s-6.22,67.84,1.39,71.59H1469s-.86-12.26-16.51-14.76-43.13-11.66-47.78-32.06S1369.34,1614.78,1369.34,1614.78Z" transform="translate(-197.94 -305.47)"/><path class="cls-4" d="M1299.93,1133.93c20-45,32.31-57.85,30-71.81-1.74-10.38,5.31-193.61,5.31-193.61,2.38-.74,7.15-1.4,9.75-2A24.45,24.45,0,0,0,1362.81,851c3.41-9.55,6.13-23.66,6.06-41.34l2.57.51,43.17,8.54s-1,13.59-1,26.39v.32a24.82,24.82,0,0,0,17.92,24l10.2,2.92s15.85,45.26,18.88,91.75-28.83,66.7.24,159.61C1490.52,1218.61,1288.85,1158.77,1299.93,1133.93Z" transform="translate(-197.94 -305.47)"/><path class="cls-17" d="M1414.61,818.71s-1,13.59-1,26.39c-24.16-.68-36.93-22.72-42.16-34.93Z" transform="translate(-197.94 -305.47)"/><path class="cls-4" d="M1422.68,830.83s-57.16.95-57.2-34.66-7.44-59.46,29-61.57,43.6,11.47,46.51,23.35S1437.55,829.67,1422.68,830.83Z" transform="translate(-197.94 -305.47)"/><path class="cls-16" d="M1420.57,733.73s-15.65,41.77-39.67,47.95-34.44-.26-34.44-.26,18.42-14.64,22.25-40.18C1368.71,741.24,1408.76,713.85,1420.57,733.73Z" transform="translate(-197.94 -305.47)"/><path class="cls-16" d="M1416.69,737.12s11.6,4.34,16.38,12.8a57.49,57.49,0,0,1,7.72,32.69s11.8-28.39-1.45-44.45C1425.28,721.13,1416.69,737.12,1416.69,737.12Z" transform="translate(-197.94 -305.47)"/><path class="cls-1" d="M1410.24,808.75a14.35,14.35,0,0,0,11.84,4.81,10.49,10.49,0,0,0,8.81-5.81S1419.21,804.94,1410.24,808.75Z" transform="translate(-197.94 -305.47)"/><path class="cls-5" d="M1452.48,1053.79l-56.71,16.94-18-4.41-51.14-12.53s-6.61-2.21-12.47-15.73c-1.11-2.55-3.11-10.35-5.2-19.57-2.31-10.23-4.71-22.22-6.06-30.7-2-12.47-6-28-9.42-44.73h0a309.35,309.35,0,0,1-5.82-37.93,32.2,32.2,0,0,1,28.54-34.52l19-2.1c60.25,49.15,106.52,3.85,106.52,3.85s15.85,28.18,26.22,68.77S1452.48,1053.79,1452.48,1053.79Z" transform="translate(-197.94 -305.47)"/><path class="cls-14" d="M1448.88,1064.73s28.08,87.41,29.88,117.17-53.68,422.77-55.91,436.49c-2.11,12.92-18.16,21.16-18.16,21.16s-7.38,4.36-17.92,1.38c-14.61-4.13-19.23-9.07-19.23-9.07s-21.86-280.29-8.34-380.42a1584.45,1584.45,0,0,0,13.69-186.71Z" transform="translate(-197.94 -305.47)"/><path class="cls-9" d="M1329.89,1062.12s-42.83,57.48-46.83,96.33-6.26,175.33-14.77,213.21-39.77,110.77-39.77,228.91c0,0,3.25,6.77,13.29,10.38a107.37,107.37,0,0,0,11.68,3.22,18.34,18.34,0,0,0,20.53-9.74c21.14-42.55,88.46-179.79,91.91-208.28,2.44-20.16,23.7-153.59,70.06-231.88,11.13-18.8-6.83-93.55-6.83-93.55Z" transform="translate(-197.94 -305.47)"/><path class="cls-15" d="M1411.51,809.7s1,4.19,11.43,3.55c0,0,8.76-.54,8.5-5.16C1431.44,808.09,1422.94,804.81,1411.51,809.7Z" transform="translate(-197.94 -305.47)"/><path class="cls-3" d="M1453.36,1051.23s-11.27,8.92-33.67,9.37c-26.75.54-93-6.82-93-6.82a55,55,0,0,0-2.82,16.92s81,20.42,127.86,3C1451.69,1073.68,1457.74,1062.3,1453.36,1051.23Z" transform="translate(-197.94 -305.47)"/><path class="cls-15" d="M1413.9,1069.84c0-7.62,5.48-13.81,12.21-13.81s12.21,6.19,12.21,13.81-5.48,13.82-12.21,13.82S1413.9,1077.46,1413.9,1069.84Zm4,0c0,5.39,3.66,9.77,8.16,9.77s8.16-4.38,8.16-9.77-3.66-9.77-8.16-9.77-8.06,4.38-8.06,9.77Z" transform="translate(-197.94 -305.47)"/><path class="cls-6" d="M1357.14,1051.24c-21.87-11.2-37.35-22.24-48.16-32.75-2.31-10.23-4.71-22.22-6.06-30.7-2-12.47-8.87-43.32-12.33-60.06l91.07,131.19S1385.76,1065.87,1357.14,1051.24Z" transform="translate(-197.94 -305.47)"/><path class="cls-6" d="M1389.39,963.81s40.5,64.31,52.24,75.86-47.9-9.18-47.9-9.18Z" transform="translate(-197.94 -305.47)"/><path class="cls-4" d="M1481.5,1067c1.35,1,25.38-2,33.12,2.85s15.15,18.41,11.68,23.25-19.9-9.68-24.74-9.43-18.71-4.05-18.71-4.05Z" transform="translate(-197.94 -305.47)"/><path class="cls-5" d="M1290.59,927.73s42.7,113.72,82.3,137,110,17.65,110,17.65,2-3.12,2.6-9.75c.28-3.29-2.6-7.9-2.6-7.9s-71.55-47.89-74.71-56c-14.41-36.89-35.29-84.11-44-90.39S1300.36,904.05,1290.59,927.73Z" transform="translate(-197.94 -305.47)"/><rect class="cls-16" x="1863.79" y="1422.48" width="529.82" height="6.33" transform="translate(109.66 2922.22) rotate(-78.51)"/><rect class="cls-16" x="2147.34" y="1183.27" width="58.77" height="13.37" transform="translate(374.78 2776.92) rotate(-78.38)"/><path class="cls-4" d="M2422,1624l17.7-5.74a555.86,555.86,0,0,0-4.2-105.62c-5-36.48-14.13-76-30.69-107.72-7.5-14.36-16.51-27.13-27.35-37.3,0,0-13.59-31.54-31.57-73.69-20-46.87-145.17-60.61-73.75,37.57,14.65,20.15,30.39,55.61,49.25,77.15,32.22,36.82,55,79.8,70.58,117.64C2414.28,1580.37,2422,1624,2422,1624Z" transform="translate(-197.94 -305.47)"/><path class="cls-4" d="M2462.29,1626.65c5.37,8.7-6.22,17.22-20.55,25.24s-8.4,8.84-26.73,22.48-29.13,12.15-31.94,10.15c-2.5-1.77,5-10.2,12.85-19.42,1-1.15,2-2.33,3-3.5,8.78-10.52,10.08-23.72,14.2-37.4,3.9-13-2.29-45.19-2.29-45.19l24.47-19.44s5,29.31,7.71,41.51c1.6,7.18,7.47,13.19,12.23,17.62A40.42,40.42,0,0,1,2462.29,1626.65Z" transform="translate(-197.94 -305.47)"/><path class="cls-18" d="M2441.74,1651.89c-14.34,8-8.4,8.84-26.73,22.48s-29.13,12.15-31.94,10.15c-2.5-1.77,5-10.2,12.85-19.42l.24.09a64,64,0,0,0,30.68-14.78c11.53-10.23,20.46-24.59,28.36-31.71a40.31,40.31,0,0,1,7.09,8C2467.66,1635.35,2456.07,1643.87,2441.74,1651.89Z" transform="translate(-197.94 -305.47)"/><path class="cls-19" d="M2299.44,702.57s43.17-5.26,64.88,34.92,19.95,98.38,41,125.84-3.5,53.48-3.5,53.48l-164,5.53s-11.4-30.68,0-67.51S2193.56,708.14,2299.44,702.57Z" transform="translate(-197.94 -305.47)"/><path class="cls-4" d="M2153.34,1190.17c1.69,6.41,7.18,20.89,11.45,20.88,3.48,0,4.72-17.72,9.2-21.49,6.49-5.45,11.78-16.9,12.62-19.67,1.74-5.72,3.37-6.91,3.37-6.91h0s51.85-94.78,55.9-119c1.33-7.9,4.72-23.74,8.71-41.49,4.33-19.3,9.36-40.86,13.15-57-16.55-3.22-34.86-4.36-49.78-4.65-3,19.64-5.76,39.71-8.11,57.15-3.48,25.94-6.13,46.06-7.76,50.38-4.51,11.83-16.94,75.63-28.65,108.75-1.34,3.25-5.15,11.74-9.31,14.63C2158.93,1175.27,2151.67,1183.75,2153.34,1190.17Z" transform="translate(-197.94 -305.47)"/><path class="cls-4" d="M2228.57,960.46c3-45.81,38.44-95.06,38.44-95.06l3.49-.34a3.14,3.14,0,0,0,2.68-2c1.32-3.62,1.71-11.54,1.69-19.8,0-12.61-1-26-1-26l42.54-8.42,2.53-.5c-.08,21.39,4,37.48,8.35,46.46a14.3,14.3,0,0,0,10.87,7.86c9.13,1.28,25.21,4,36.05,8.54,5.26,2.2,9.28,4.82,10.68,7.9C2396.57,904.74,2225.58,1006.27,2228.57,960.46Z" transform="translate(-197.94 -305.47)"/><path class="cls-17" d="M2273.87,817.22s1,13.38,1,26c23.8-.67,36.38-22.38,41.54-34.41Z" transform="translate(-197.94 -305.47)"/><path class="cls-4" d="M2265.92,829.16s56.32.93,56.36-34.15,7.33-58.58-28.62-60.66-43,11.3-45.82,23S2251.28,828,2265.92,829.16Z" transform="translate(-197.94 -305.47)"/><path class="cls-4" d="M2187.34,1646.67l18.07,4.45a556.49,556.49,0,0,0,52.05-92c15-33.64,28-72,30.62-107.74,1.18-16.15.24-31.75-3.61-46.11,0,0,5.05-34,12-79.27,7.67-50.38,17.61-114.78,25.41-162.14l-4.71-1.39-76.88-45S2205,1198,2214,1319.07c1.85,24.84-3.45,63.28,1.24,91.52,8,48.27,4.72,96.78-1.93,137.17C2203.74,1605.55,2187.34,1646.67,2187.34,1646.67Z" transform="translate(-197.94 -305.47)"/><path class="cls-19" d="M2249.52,737.85c8.69-10.53,15.26-8.24,18.95-5.08,30.19-16.75,50.63,8.12,50.63,8.12,3.77,25.17,21.92,39.58,21.92,39.58s-10,5.33-33.93.26c-28.37-6-36.17-38-37.3-42.14-3.44,3.08-10.22,9.79-12.28,16.36-2.81,8.94-4.07,27.32-9.43,26.7C2248.08,781.65,2236.46,753.68,2249.52,737.85Z" transform="translate(-197.94 -305.47)"/><path class="cls-5" d="M2193.56,1438.21c68,38.85,247-23,246.82-26.6-1-19-18.15-133.49-38.35-242.74-12.42-67.18-45.49-92.27-40.2-96.51l.08-.08c20.39-14.47,36.72-167.3,23.12-193.15a10.44,10.44,0,0,0-3.34-3.53.4.4,0,0,0,.13-.16c-12.73-9.28-38.74-12.12-38.74-12.12s-14,34.32-18.31,39.69c-27.75,34.67-77.6,19-70.81-2.58,2.44-7.86,15-32.62,16.57-35.38a34.84,34.84,0,0,0-3.53.34c-8.36,1.11-14.28,2-18.54,2.69-8.37,1.42-10.44,2.42-12.52,4-7.34,7.34-16.89,25.57-17.65,58.11-.29,12.1-12.89,145.7,27.88,143.39.92-.06.13,2.13-1.63,6.26-5.76,13.23-22.1,46.43-26.83,89C2202.29,1307.42,2193.56,1438.21,2193.56,1438.21Z" transform="translate(-197.94 -305.47)"/><path class="cls-15" d="M2280.08,807.76s-.78,4.38-11.57,4.3c0,0-9.07-.07-9.05-4.84C2259.46,807.22,2268,803.37,2280.08,807.76Z" transform="translate(-197.94 -305.47)"/><path class="cls-4" d="M2220.19,1670.18c0,10.22-14.35,11.35-30.76,10.63s-11.79,3.09-34.56,5-31.16-5-32.5-8.19c-1.19-2.82,9.61-6,21.15-9.74,1.45-.46,2.91-.94,4.36-1.42,13-4.32,21.06-14.86,31.77-24.32,10.14-9,21.85-39.63,21.85-39.63l31-3.63s-11.2,27.53-15.3,39.34c-2.42,7-.59,15.15,1.13,21.42A40.15,40.15,0,0,1,2220.19,1670.18Z" transform="translate(-197.94 -305.47)"/><path class="cls-18" d="M2189.43,1680.81c-16.41-.72-11.79,3.09-34.56,5s-31.16-5-32.5-8.19c-1.19-2.82,9.61-6,21.15-9.74l.16.2a64.08,64.08,0,0,0,33.87,3.59c15.18-2.63,30.33-10.13,40.81-12a40.23,40.23,0,0,1,1.83,10.5C2220.17,1680.4,2205.84,1681.53,2189.43,1680.81Z" transform="translate(-197.94 -305.47)"/><path class="cls-12" d="M2193.56,1438.21c68,38.85,247-23,246.82-26.6-1-19-18.15-133.49-38.35-242.74-12.42-67.18-45.49-92.27-40.2-96.51-1.26,1-20.44,16.49-55.61,14.39a582.92,582.92,0,0,1-61.68-6.89c-5.76,13.23-22.1,46.43-26.83,89C2202.29,1307.42,2193.56,1438.21,2193.56,1438.21Z" transform="translate(-197.94 -305.47)"/><path class="cls-16" d="M2361.91,1072.28s-55.68,23.24-115.74,1.32l-3.05,9.41s61.79,21.46,121.2-3Z" transform="translate(-197.94 -305.47)"/><path class="cls-16" d="M2245,771.08h18.05a2.51,2.51,0,0,1,2.51,2.51h0v4.26a7.53,7.53,0,0,1-7.53,7.53h-9.23a7.64,7.64,0,0,1-7.63-7.63V774.9A3.83,3.83,0,0,1,2245,771.08Z" transform="translate(-197.94 -305.47)"/><path class="cls-16" d="M2294.82,785.39h-9.23a7.53,7.53,0,0,1-7.53-7.53h0V773.6a2.51,2.51,0,0,1,2.51-2.51h18a3.82,3.82,0,0,1,3.83,3.83h0v2.85a7.64,7.64,0,0,1-7.63,7.63Z" transform="translate(-197.94 -305.47)"/><path class="cls-16" d="M2280.62,777.26c-.08,0-7.95-3.42-15.47,0l-.56-1.24c8.09-3.68,16.24-.16,16.58,0Z" transform="translate(-197.94 -305.47)"/><path class="cls-4" d="M2423.31,1035.77c.66-.8-29.32-10.53-46.92-6.33-10.49,2.51-6.22,15.11,2.37,16S2417.58,1042.76,2423.31,1035.77Z" transform="translate(-197.94 -305.47)"/><path class="cls-4" d="M2371.64,1032.39s-9.72,12.95-9.72,19.08,5.28,20.35,10.44,18.77,7.34-15.21,8.13-18.38,6.74-5.34,8.1-9.68a41.66,41.66,0,0,0,1.58-6.12Z" transform="translate(-197.94 -305.47)"/><path class="cls-4" d="M2398,909.1c-.15-.07,77.13,129.05,67.18,152.95s-17.24,3.52-25.91-6c-1.5-1.64-70.8-91.12-68.61-105.56S2398,909.1,2398,909.1Z" transform="translate(-197.94 -305.47)"/><g id="man"><path class="cls-4" d="M2361,1052.16s-33.52,4.22-36.69,6.6-10.82,18.33-10,23.25,11.62,12.64,15.31,12.64,5-8.18,8.48-10,6.66-2.28,9.3-3c5-1.35,14.55-5.72,14.55-5.72Z" transform="translate(-197.94 -305.47)"/><path class="cls-3" d="M2513.16,891.9S2469,1011.27,2450,1020.49s-89,31.67-89,31.67v27.45s71.27,1.13,106.63-9.2,81.42-48.89,81.42-48.89Z" transform="translate(-197.94 -305.47)"/><path class="cls-3" d="M2605.29,778.88l-43.16,81.89-10.3.74-4.65,13.06-43.27,130.36S2480,839.3,2605.29,778.88Z" transform="translate(-197.94 -305.47)"/><path class="cls-3" d="M2533.29,851.28s-47.73,176-52.33,343.86c0,0,39.59,13.8,101.78,2.87C2645.25,1187,2533.29,851.28,2533.29,851.28Z" transform="translate(-197.94 -305.47)"/><path class="cls-3" d="M2750.88,1687.47h42.91c5.41-2.93,10.22-9.64,11.74-19.66,2.1-13.82,17.59-21.36,20.94-32.67s-13.82-27.22-13.82-27.22l-2.88-3.7-3-3.84-28.48,6.71s-.71,6.78-1.14,15.42a197.34,197.34,0,0,0-.12,19.76c.84,15.07-4.22,31.31-17.61,34.24C2749.53,1678.68,2750,1684.55,2750.88,1687.47Z" transform="translate(-197.94 -305.47)"/><path class="cls-3" d="M2501.85,1687.47H2600c4.72-5.76,3-27,2.27-34-.15-1.4-.25-2.21-.25-2.21s-33.51-26.8-38.11-6.28c-.14.64-.31,1.27-.5,1.89-5.8,19.2-31.81,27.92-46.83,30.35C2506.79,1678.86,2503.19,1683.93,2501.85,1687.47Z" transform="translate(-197.94 -305.47)"/><path class="cls-9" d="M2520.55,1139.71s5.09,63.49,11.07,139.8c8.13,103.66,17.9,231,18.87,255.12,1.67,41.89,8.38,108.89,8.38,108.89s15.9,15.92,47.74,9.21c0,0,28.37-95.65,36.47-196.85.13-1.66.25-3.33.38-5,7.54-103,19.26-320,19.26-320Z" transform="translate(-197.94 -305.47)"/><path class="cls-14" d="M2520.55,1139.71s5.09,63.49,11.07,139.8l111.46,176.37c.13-1.66.25-3.33.38-5,7.54-103,19.26-320,19.26-320Z" transform="translate(-197.94 -305.47)"/><path class="cls-9" d="M2543.79,1147.25s91.71,229.92,152,338,79.15,138.2,79.15,138.2,34.55-13.82,37.69-23.25c0,0-23.06-208.59-63.45-259.44-22.82-28.73-49.62-115-50.88-145.11s-8.17-89.83-8.17-89.83Z" transform="translate(-197.94 -305.47)"/><path class="cls-4" d="M2566.62,812.08c35.84,11.31,97.85-19.21,97.85-19.21s-33-24.8-31.31-76.37l-27.72,22.34L2586.62,754a225.46,225.46,0,0,0,2.13,24.62c.38,2.86.82,5.94,1.34,9.24a6.63,6.63,0,0,1-3,6.68A84.68,84.68,0,0,0,2566.62,812.08Z" transform="translate(-197.94 -305.47)"/><path class="cls-15" d="M2516.59,1145a5.75,5.75,0,0,0,3.77,1.44c13.46-.19,52.71,7.29,85.91,3.88,28-2.69,52.78-11,79.39-22.91,3.53-1.58,11.66-5.92,11.48-9.87-.12-4.33-.55-10.6-1.09-18.5-1.88-27.47-5.16-74.71-2-129.21.57-10.15.87-20.22.91-30.13.28-73.86-14.37-138.83-43.8-160.82,0,0-20.53,11.51-34.73,16-13.91,4.45-21.09,3.55-28.3-1.23,0,0-14.06,7-20.06,13.53-13.91,15.16-24.77,35.29-32,64.18-6.11,24.58-11.82,60.43-13.8,106.37C2521.47,998.6,2515.7,1144.28,2516.59,1145Z" transform="translate(-197.94 -305.47)"/><path class="cls-12" d="M2720.55,1179.24c-90.47,56.73-164.26,28-164.26,28-13.23-103.5-5.91-228.4-4.19-258.87,4.38-133.74,99.1-169.47,99.1-169.47l39.45,122,5.84,54.31L2707,1053.3Z" transform="translate(-197.94 -305.47)"/><path class="cls-20" d="M2586.62,754a225.46,225.46,0,0,0,2.13,24.62c20.86-3.58,44.52-37.29,44.52-37.29-10.62-3.07-19.92-3.62-27.83-2.49Z" transform="translate(-197.94 -305.47)"/><path class="cls-4" d="M2571.1,753.05s64.55,10.72,70.61-29.58,18.47-66.06-22.49-74.61-51.3,5.62-56.59,18.58S2554.46,749.22,2571.1,753.05Z" transform="translate(-197.94 -305.47)"/><path class="cls-4" d="M2754.13,1104.36s6.92,9.22,7.19,12.9c1.87,25-9.54,28.42,20,42.29,0,0,12.61,4.81,12.82-5s-8.75-10-7.11-23.66c1.89-15.81,1.7-16-8.68-24.21l-6.87-11.36Z" transform="translate(-197.94 -305.47)"/><path class="cls-12" d="M2641.76,719.59s-6.62-1.11-5.55-10.23,1.05-21.05-6.37-18.83-7.78,8.16-10.83,4.69-3.11-18.08-25.18-19.09-31,6.66-41.31,2.15-10.81-20-10.81-20,2.92,5.55,7.33,7.31c0,0-17.12-23.42,2.71-39.48s40-5.55,51.51-4.86c25.28,1.53,41.62,3,49.87,19.66S2658,703.6,2641.76,719.59Z" transform="translate(-197.94 -305.47)"/><path class="cls-4" d="M2765.05,1115.34s-6.67,7-7.09,9.84c-1.35,9.28-4.45,13.28-2.9,14.29,3.23,2.1,7.51-4.77,9.55-10.93S2765.05,1115.34,2765.05,1115.34Z" transform="translate(-197.94 -305.47)"/><path class="cls-3" d="M2707,1053.32C2687.2,1002.6,2631.8,917,2631.8,917l64.69,38.19Z" transform="translate(-197.94 -305.47)"/><path class="cls-12" d="M2771.73,1111.42a101.19,101.19,0,0,1-23.19,1.29s-33-102.05-37.29-111.38c-2.75-6-44.88-48.9-74.36-78.49a63,63,0,0,1-14.44-66.37l28.75-77.59s22.33,13.07,45.94,53.81c29.17,50.33,61.24,131.38,66.94,144.55,17,39.38,23,127.68,23,127.68A42.43,42.43,0,0,1,2771.73,1111.42Z" transform="translate(-197.94 -305.47)"/><path class="cls-3" d="M2651.2,778.88,2608,860.77l-22.14-8,7.19,21.85L2549.77,1005S2525.88,839.3,2651.2,778.88Z" transform="translate(-197.94 -305.47)"/></g><path class="cls-15" d="M2566.62,730.18s2.51,6.64,8.8,6.82,11.13-5.92,11.13-5.92S2572.91,727.91,2566.62,730.18Z" transform="translate(-197.94 -305.47)"/><path class="cls-5" d="M2381.69,875.6s20.84,16.81,43,67.12c0,0-4.5,32.37-62.78,41.17S2381.69,875.6,2381.69,875.6Z" transform="translate(-197.94 -305.47)"/><path class="cls-5" d="M2240.62,869.77s-21.44,3.26-30.94,45.14-8.1,64.4-8.1,64.4,9.86,12.32,22.88,9.15S2240.62,869.77,2240.62,869.77Z" transform="translate(-197.94 -305.47)"/><path class="cls-4" d="M2481,1076.09s4.28-8.67-15.13-22.77c-14.67-10.65-49-20.08-49-20.08l-42.63,3.15s44.48,37.87,66.23,45.62C2461.14,1089.4,2479.87,1084.75,2481,1076.09Z" transform="translate(-197.94 -305.47)"/><path class="cls-4" d="M910.31,970.88S920.5,958.51,926,956.77s16.1-10,17.48-6.57-7.13,8.61-6.68,12.48,27.08,10.08,26.91,14.17-6.26,14-16.42,12.86-35.92-7.25-41.21-4.61S910.31,970.88,910.31,970.88Z" transform="translate(-197.94 -305.47)"/><path class="cls-5" d="M635.65,910.68a218,218,0,0,0,50.73,48.73c57.5,40,119.87,46,119.87,46,14.94-4.79,60.86-9.78,88-14.16h0c11.83-1.9,20.08-3.68,20.64-5.27l-.69-23.63s-99.58-5.35-116.07-13c-26-22.4-49-51.49-64-74.22C721.49,856,707.34,841.8,684,833.49,650.32,821.46,589,848,635.65,910.68Z" transform="translate(-197.94 -305.47)"/><path class="cls-6" d="M681.31,944.54l5.07,14.87c57.5,40,119.87,46,119.87,46,12,0,60.86-9.78,88-14.16-1.08.09-73.87,5.78-90,4.12s-91.67-67.08-91.67-67.08Z" transform="translate(-197.94 -305.47)"/><path class="cls-3" d="M746.32,1693.47H636.27c-7.89-5.35,2.12-57.63,2.12-57.63s30-11.39,35.23,11.78,38.25,30.52,55.75,33.35C741.34,1682.92,745.12,1689.49,746.32,1693.47Z" transform="translate(-197.94 -305.47)"/><path class="cls-3" d="M583.1,1693.47h-110c-7.89-5.35,2.13-57.63,2.13-57.63s30-11.39,35.22,11.78,38.26,30.52,55.75,33.35C578.12,1682.92,581.9,1689.49,583.1,1693.47Z" transform="translate(-197.94 -305.47)"/><path class="cls-12" d="M716.71,1160.14s-5,61.71-10.76,135.9c-7.9,100.77-29.22,350.63-29.22,350.63s-14,11.92-44.92,5.4c0,0-26.34-86.2-34.22-184.58-.12-1.61-.24-3.23-.37-4.86-7.33-100.15-18.72-311-18.72-311Z" transform="translate(-197.94 -305.47)"/><path class="cls-3" d="M718.4,1138.81s-6.64,83-12.45,157.23L597.59,1467.49c-.12-1.61-.24-3.23-.37-4.86-7.33-100.15-18.72-311-18.72-311Z" transform="translate(-197.94 -305.47)"/><path class="cls-12" d="M686.81,1138.81s-78.59,195.63-103.71,269.78c-17.89,52.82-68.37,238.12-68.37,238.12s-21.94,6.68-40.39-6.23c0,0-18.77-189.32,19.15-242.7,20.13-28.32,5-294.4,86.59-296.67S686.81,1138.81,686.81,1138.81Z" transform="translate(-197.94 -305.47)"/><path class="cls-4" d="M651.71,850.43A49,49,0,0,1,617.85,855a70.1,70.1,0,0,1-22.94-9.68,67.68,67.68,0,0,1-9.25-7s.41-.58,1.09-1.74c3.54-6.06,14.29-27.85,9.51-62.88-.06-.45,3.4.2,8.65,1.44,15.59,3.69,46.94,12.58,48.33,13h0s.38,7.37,1.68,20.57c.1,1.17.22,2.38.35,3.64.16,1.55.32,3.19.51,4.88C657.28,830.94,651.71,850.43,651.71,850.43Z" transform="translate(-197.94 -305.47)"/><path class="cls-20" d="M655,808.69c-23.28,5.34-58-29-58-29a36.64,36.64,0,0,1,8-4.51c15.59,3.69,46.94,12.58,48.33,13h0S653.67,795.49,655,808.69Z" transform="translate(-197.94 -305.47)"/><path class="cls-4" d="M662.87,786.26a117.86,117.86,0,0,1-21.77,5.08c-17.85,2.41-41.32,1-48.69-20.6-12.42-36.35-28.28-58.14,8.26-73,19.56-8,32.08-8.37,40.58-5.34,7.38,2.62,11.74,7.85,15,13C663.38,716.56,677.66,779.9,662.87,786.26Z" transform="translate(-197.94 -305.47)"/><path class="cls-21" d="M685.05,708.31c-21.16,15.21-50.43.26-59.53,4.3s-10.72,19.28-10.88,24.12-.8,8.94-13.15,6A6,6,0,0,0,597,743c-5.12,3,1.43,17.76,3.4,21,0,0,2.84,10.55-3.46,15.68-.77.62-13.15,6-43-39.63-4.69-7.17-9.17-23.31-1.92-38.86s37.47-30.57,63.1-38.53c9.61-3,16.74-2.87,22.31-.83,9.3,3.4,14.25,12.18,19.17,21C664.88,697.64,685.05,708.31,685.05,708.31Z" transform="translate(-197.94 -305.47)"/><path class="cls-5" d="M729,1105.87c-1.7,22.42-6.44,38.48-16.82,38.48,0,0-46.17,16.25-101.36,16.68-10.78.08-26.06-2-38.73-4.14-12.94-2.19-23.18-4.4-23.18-4.4-11.09-2.56-23.34-9.42-21.7-22.07.93-7.16,1.58-16.49,2-27.33,1.22-29.31,1-69.69,1.17-108.34.11-23.74.34-46.82,1.13-66.29,0,0-10.89-76.47,1.21-89,14.16-14.67,55.77-19.18,58.38-18.62.78-.17,1.56-.36,2.36-.49,0,0,35.44,20,61.76,5.18l.74.12c6.41,1,38.41,8.41,49.46,20.09,3.81,4,19,28.71,19.45,55.82.58,37.79-.9,80.73-.9,80.74.39,6.14,1,14.05,1.78,23.09.77,9.63,1.62,20.5,2.34,31.84.36,5.71.7,11.54,1,17.38C729.9,1072.58,730.15,1090.69,729,1105.87Z" transform="translate(-197.94 -305.47)"/><path class="cls-6" d="M591.29,820.86S630.5,861.3,658.54,853c0,0,3.73-5.46-8.89-7.21S623.39,844.77,591.29,820.86Z" transform="translate(-197.94 -305.47)"/><path class="cls-15" d="M663.15,762.8s.77,4.7-10.17,8.46c0,0-9.19,3.15-10.86-1.67C642.12,769.59,649.41,762.64,663.15,762.8Z" transform="translate(-197.94 -305.47)"/><path class="cls-6" d="M566.44,963s.07,109.38-37.21,140.09c1.22-29.31,1-69.69,1.17-108.34Z" transform="translate(-197.94 -305.47)"/><path class="cls-4" d="M451.82,1167.76s-19,29.8-20,41.21c-.73,7.75,1,38.33,4.88,38.43,5.47.15,10.93-18.87,13-23.8s4.58-8.82,6.7-8.82-4.59,19,0,16.93,12.34-19.74,13-24-4.14-17.79-1.77-23.13S451.82,1167.76,451.82,1167.76Z" transform="translate(-197.94 -305.47)"/><path class="cls-5" d="M536.35,835.3s-25.65,12.12-47.16,101.82C473,1004.74,442,1177.41,442,1177.41l26.25,10.8s96.12-220.69,109.87-251.72S536.35,835.3,536.35,835.3Z" transform="translate(-197.94 -305.47)"/><path class="cls-4" d="M1008.56,963s25.38,124.06,35,144.34,48.28,93.24,48.28,93.24l-11.27,7.82s-69.62-72.07-72-79.82-48-104.35-48-104.35Z" transform="translate(-197.94 -305.47)"/><path class="cls-3" d="M959.64,773.66s-49.21-59.13-75.26-21.3c0,0-19.43,8.07-26.46,41.14-7.17,33.75,15.27,59.41,26.88,53.07,7.44-4.07,13.07,8.95,13.07,8.95Z" transform="translate(-197.94 -305.47)"/><path class="cls-3" d="M889.76,746.37s-6.62-26.46-45.48-18.2c0,0,18.6-2.34,23.7,4.83,0,0-14.74-6.75-24-1.1s-10.75,24.67-9.37,30.46,11.58,23,18.33,23,14.75-5.92,14.75-5.92Z" transform="translate(-197.94 -305.47)"/><path class="cls-4" d="M831.6,1160.53c19.33-43.34,28.57-55.6,28.89-69.24.26-10.78-5.06-22.41-15.39-50.94a106.28,106.28,0,0,1-5.14-20.63c-8.17-55,23.64-114.46,43.41-118.51,5.5-1.45,14.82-21.32,14.7-53.33l2.48.49,41.62,8.24s-.94,13.1-1,25.44c0,10.29.59,20,2.92,21.26,3,.27,4.77.45,4.77.45s34.7,48.2,37.62,93-27.79,64.3.23,153.89C1015.36,1242.17,820.92,1184.47,831.6,1160.53Z" transform="translate(-197.94 -305.47)"/><path class="cls-17" d="M942.17,856.61s-.94,13.1-1,25.44c-23.29-.65-35.61-21.9-40.65-33.68Z" transform="translate(-197.94 -305.47)"/><path class="cls-3" d="M896.25,843.84S884,824.55,881.11,808.06c-2.09-11.77,3.91-55.41,47.77-49.13a59.73,59.73,0,0,1,24.71,9.34c9.52,6.43,23.26,20.32,7.9,58.4l-4,12.87Z" transform="translate(-197.94 -305.47)"/><path class="cls-4" d="M950,868.3s-55.11.91-55.14-33.42-7.18-57.33,28-59.36,42,11.06,44.84,22.51S964.29,867.18,950,868.3Z" transform="translate(-197.94 -305.47)"/><path class="cls-3" d="M947.91,774.68S932.82,815,909.67,820.91s-33.2-.25-33.2-.25,17.76-14.11,21.44-38.75C897.91,781.91,936.53,755.51,947.91,774.68Z" transform="translate(-197.94 -305.47)"/><path class="cls-3" d="M944.17,778s11.27,9,14,17.73,4,26.74,9.23,26.13c0,0,11.37-27.38-1.41-42.86C952.46,762.53,944.17,778,944.17,778Z" transform="translate(-197.94 -305.47)"/><path class="cls-16" d="M880.4,1576.41a544.6,544.6,0,0,0,34.73,97.43l18.18-1.26s-8.91-42.39-8.4-99.68c.36-40.05,5.31-87.38,21.13-132.57C1000.42,1285,991.63,1172,991.63,1172l-102.25,12-4.77.56c-.42,47-1.64,110.73-2.7,160.59-.94,44.84-1.76,78.43-1.76,78.43C860.49,1465.88,867.63,1525.65,880.4,1576.41Z" transform="translate(-197.94 -305.47)"/><path class="cls-4" d="M759.93,1206.56l16.54,5S831.05,1121,836,1097.41c1.62-7.67,5.59-23,10.22-40.22,9.58-35.62,21.95-79.2,21.95-79.2l4.07-17.64,13.9-60.17s-26.61,2.72-42.17,9.23c-5.15,2.15-9.08,4.71-10.45,7.72-11.43,25.14-22.84,88.57-30.86,133.82-4.47,25.22-7.88,44.79-9.66,48.94C788,1111.46,772.88,1175.14,759.93,1206.56Z" transform="translate(-197.94 -305.47)"/><path class="cls-18" d="M799.79,1518.19c-5,33.58-17.45,126.38-12.6,141.9l19.84-3.34s36.46-83.85,44.74-106.85c17-47.33,36.75-76.12,43.47-98.33,21-69.45,47.06-296,47.06-296l-103.68-5.14c-10.42,17.53-15,46.28-16,79-2.72,82.5,8.28,177.92,11.17,193.48C825.28,1436.84,809.17,1455.11,799.79,1518.19Z" transform="translate(-197.94 -305.47)"/><path class="cls-3" d="M946.27,779.31s-10.75,42.17-40,55.68c0,0,29.22-25.91,31.7-53.75S946.27,779.31,946.27,779.31Z" transform="translate(-197.94 -305.47)"/><path class="cls-9" d="M818.6,1191.81a24.38,24.38,0,0,0,.65,8.29c2.21,6.94,9.78,10.11,28.1,8.21,11.19-1.16,16.18-19.92,18.41-35.93q10.08,34.35,28.3,38.45c17.76,4,107.33,14.84,113.19-27.74,6.45-46.83-12.86-129.75-13.92-174.46a221.25,221.25,0,0,0,3.25-41.43c-.75-31.85-10.1-49.7-17.29-56.89-2-1.56-4.07-2.53-12.24-3.93-4.18-.72-10-1.54-18.16-2.62a32.48,32.48,0,0,0-3.27-.25c1.51,2.71,21.8,33.43,20.22,41.32-1.66,8.27-73.61.83-78.57-3.72s-12.81-39.37-12.81-39.37-25.48,2.78-37.94,11.84l.13.16a10.57,10.57,0,0,0-3.27,3.45c-13.3,25.31-26.58,89.2-35.91,134.77,22.63,12.47,42.4,8.76,48.54,7.11C838,1111.55,819.8,1167.9,818.6,1191.81Z" transform="translate(-197.94 -305.47)"/><path class="cls-3" d="M904.67,1689.08h11.6c3.89-.61,6.76-1.73,10.74-2.25,6.06-.8,8.84,1.68,9.4,2.25l.1.12H985.8c1.24-1.77.05-5.87-1.12-8.89a7,7,0,0,0-4.61-4.22c-5.23-1.51-15.53-2.86-25-11.4-5.31-4.8-25.63-17.64-25.63-17.64h-.11c-.45,0-2.57.67-11.82,8.47-4.78,4-12.92-5.69-12.92-5.69a11.62,11.62,0,0,0-2.67,3.62,12.29,12.29,0,0,0-1.06,7.57c.74,4.44-1.64,12.7-3.53,18.28-1.15,3.38-2.12,5.78-2.12,5.78S894.69,1687.83,904.67,1689.08Z" transform="translate(-197.94 -305.47)"/><path class="cls-22" d="M902,1653.42c2.77,2,8.61,5.8,12.49,6.31,5.24.68,15-12.68,15-12.68h-.11c-.45,0-2.57.67-11.82,8.47-4.78,4-12.92-5.69-12.92-5.69A11.68,11.68,0,0,0,902,1653.42Z" transform="translate(-197.94 -305.47)"/><path class="cls-22" d="M904.67,1689.08h11.6c3.89-.61,6.76-1.73,10.74-2.25,6.06-.8,8.84,1.68,9.4,2.25l.1.12H985.8c1.24-1.77.05-5.87-1.12-8.89-1.49-1.33-1.92,5.78-2.74,6.91s-40.21.42-42.48-1.24-9.1-4.55-18.61-2.27c-8.28,2-20.47-3.09-23.49-4.44-1.15,3.38-2.12,5.78-2.12,5.78S894.69,1687.83,904.67,1689.08Z" transform="translate(-197.94 -305.47)"/><path class="cls-3" d="M785.62,1689.08h11.6c3.89-.61,6.76-1.73,10.74-2.25,6-.8,8.84,1.68,9.4,2.25l.1.12h49.29c1.24-1.77,0-5.87-1.12-8.89a7,7,0,0,0-4.61-4.22c-5.23-1.51-15.53-2.86-25-11.4-5.31-4.8-25.63-17.64-25.63-17.64h-.11c-.45,0-2.57.67-11.82,8.47-4.78,4-12.92-5.69-12.92-5.69a11.62,11.62,0,0,0-2.67,3.62,12.29,12.29,0,0,0-1.06,7.57c.73,4.44-1.64,12.7-3.53,18.28-1.15,3.38-2.12,5.78-2.12,5.78S775.64,1687.83,785.62,1689.08Z" transform="translate(-197.94 -305.47)"/><path class="cls-22" d="M782.9,1653.42c2.77,2,8.61,5.8,12.49,6.31,5.24.68,15-12.68,15-12.68h-.11c-.45,0-2.57.67-11.82,8.47-4.78,4-12.92-5.69-12.92-5.69A11.68,11.68,0,0,0,782.9,1653.42Z" transform="translate(-197.94 -305.47)"/><path class="cls-22" d="M785.62,1689.08h11.6c3.89-.61,6.76-1.73,10.74-2.25,6-.8,8.84,1.68,9.4,2.25l.1.12h49.29c1.24-1.77,0-5.87-1.12-8.89-1.49-1.33-1.92,5.78-2.74,6.91s-40.21.42-42.48-1.24-9.1-4.55-18.61-2.27c-8.28,2-20.47-3.09-23.49-4.44-1.15,3.38-2.12,5.78-2.12,5.78S775.64,1687.83,785.62,1689.08Z" transform="translate(-197.94 -305.47)"/><path class="cls-23" d="M818.6,1191.81c12.31-4.11,28.09-15,47-39.53,50.19-64.87,4.26-141.11-1.89-142.53S846,1059.07,846,1059.07C838,1111.55,819.8,1167.9,818.6,1191.81Z" transform="translate(-197.94 -305.47)"/><path class="cls-9" d="M976.21,908.86S1010.59,926.15,1022,996c0,0-11.25,15.43-27.11,20a31.91,31.91,0,0,1-7.06,1.21C968.39,1018.18,976.21,908.86,976.21,908.86Z" transform="translate(-197.94 -305.47)"/><path class="cls-4" d="M1091.88,1200.58s19.31,15.87,18.83,23.11-11.59,19.8-18.83,19.31-11.27-34.6-11.27-34.6Z" transform="translate(-197.94 -305.47)"/><rect class="cls-16" x="1138.15" y="1206.71" width="5.79" height="484.56" transform="translate(-463.71 -49.14) rotate(-11.49)"/><rect class="cls-16" x="1091.08" y="1206.45" width="12.23" height="53.75" transform="translate(-423.87 -59.2) rotate(-11.62)"/><path class="cls-15" d="M939.19,847.92s.95,4.05,11,3.42c0,0,8.45-.52,8.19-5C958.39,846.38,950.2,843.21,939.19,847.92Z" transform="translate(-197.94 -305.47)"/><path class="cls-4" d="M762.88,1199s-24,14.74-27.44,21.1-11.57,29.81-11.57,29.81,5.78.87,11.57-9.26,24.89-9.26,31.26-14.76,13.77-21.61,13.77-21.61Z" transform="translate(-197.94 -305.47)"/><path class="cls-4" d="M778,1209.23s-3.78,17.79-8.41,23-11,13.89-13.6,11.58,2.9-21.71,2.9-21.71Z" transform="translate(-197.94 -305.47)"/><path class="cls-4" d="M738.63,1222.1c-.58.87-20.55,22.09-20.55,22.09s7.23,3.28,9.26,0S738.63,1222.1,738.63,1222.1Z" transform="translate(-197.94 -305.47)"/><path class="cls-16" d="M925,814.08h15.46a2.15,2.15,0,0,1,2.15,2.15h0v3.65a6.45,6.45,0,0,1-6.45,6.45h-7.91a6.53,6.53,0,0,1-6.53-6.53h0v-2.44A3.28,3.28,0,0,1,925,814.08Z" transform="translate(-197.94 -305.47)"/><path class="cls-16" d="M967.61,826.34H959.7a6.45,6.45,0,0,1-6.45-6.45h0v-3.65a2.15,2.15,0,0,1,2.15-2.15h15.46a3.28,3.28,0,0,1,3.28,3.28h0v2.44a6.53,6.53,0,0,1-6.53,6.53Z" transform="translate(-197.94 -305.47)"/><path class="cls-16" d="M955.44,819.37c-.07,0-6.8-2.93-13.24,0l-.49-1.06c6.93-3.16,13.91-.14,14.2,0Z" transform="translate(-197.94 -305.47)"/></svg>