<svg xmlns="http://www.w3.org/2000/svg" viewBox="0 0 358.06 498.8"><defs><style>.cls-1{fill:#f49749;}.cls-2{fill:#fcc13a;}.cls-3{fill:#eb5a40;}.cls-4{fill:#4a4a4a;}.cls-5,.cls-6{fill:none;stroke:#4a4a4a;}.cls-5{stroke-width:19px;}.cls-6{stroke-width:13px;}</style></defs><title>Marker</title><g id="Camada_3" data-name="Camada 3"><polyline class="cls-1" points="357.45 210.86 176.77 498.8 2.63 214.92"/></g><g id="BrandSvg"><path class="cls-2" d="M539,356.06A179.06,179.06,0,0,0,383.16,178.52a12.61,12.61,0,0,0-6.68,11.12v5.22a12.62,12.62,0,0,0,12.62,12.61h26.48a12.61,12.61,0,0,1,12.61,12.61v5.22a12.62,12.62,0,0,0,12.62,12.61h21.54A12.62,12.62,0,0,1,475,250.52v5.22a12.62,12.62,0,0,1-12.62,12.61H402.1A12.62,12.62,0,0,0,389.48,281v5.22a12.62,12.62,0,0,0,12.62,12.61h52a12.61,12.61,0,0,1,12.62,12.61v5.21a12.62,12.62,0,0,1-12.62,12.62H376.29a12.6,12.6,0,0,0-12.61,12.61v5.21a12.61,12.61,0,0,0,12.61,12.62h64.06A12.61,12.61,0,0,1,453,372.28v6.21a12.62,12.62,0,0,1-12.62,12.61H394a12.62,12.62,0,0,0-12.61,12.61v5.22A12.62,12.62,0,0,0,394,421.54H408.9a12.61,12.61,0,0,1,12.62,12.61v4.22A12.6,12.6,0,0,0,434.13,451a12.62,12.62,0,0,1,12.61,12.62v5.21a12.62,12.62,0,0,1-12.61,12.61h-32A12.62,12.62,0,0,0,389.48,494v5.22a12.61,12.61,0,0,1-12.61,12.61h-.58a12.61,12.61,0,0,0-12.61,12.61v5.22a12.58,12.58,0,0,0,1.2,5.34A179,179,0,0,0,539,356.06Z" transform="translate(-180.97 -177.03)"/><path class="cls-1" d="M462.35,237.91H440.81a12.62,12.62,0,0,1-12.62-12.61v-5.22a12.61,12.61,0,0,0-12.61-12.61H389.1a12.62,12.62,0,0,1-12.62-12.61v-5.22a12.61,12.61,0,0,1,6.68-11.12A180.56,180.56,0,0,0,360,177,178.19,178.19,0,0,0,269,201.9a14.71,14.71,0,0,1,14.44,14.7v1a14.72,14.72,0,0,0,14.72,14.72H334A14.72,14.72,0,0,1,348.71,247v1A14.72,14.72,0,0,1,334,262.76H278a14.72,14.72,0,0,0-14.72,14.72v1A14.72,14.72,0,0,0,278,293.2H325.7a14.72,14.72,0,0,1,14.72,14.72v1a14.72,14.72,0,0,1-14.72,14.73H252.14a14.72,14.72,0,0,0-14.72,14.72v1a14.73,14.73,0,0,0,14.72,14.73h42.11A14.72,14.72,0,0,1,309,368.8v2a14.72,14.72,0,0,1-14.72,14.72H232.67a14.72,14.72,0,0,0,0,29.44h47.87a14.73,14.73,0,0,1,14.72,14.73v1A14.72,14.72,0,0,0,310,445.39h35.3A14.72,14.72,0,0,1,360,460.11v1a14.72,14.72,0,0,1-14.72,14.72H298.11a14.72,14.72,0,0,0-14.72,14.72v1a14.72,14.72,0,0,1-14.73,14.72h-6.1A178.16,178.16,0,0,0,360,535.1c1.63,0,3.26,0,4.88-.07a12.58,12.58,0,0,1-1.2-5.34v-5.22a12.61,12.61,0,0,1,12.61-12.61h.58a12.61,12.61,0,0,0,12.61-12.61V494a12.62,12.62,0,0,1,12.62-12.61h32a12.62,12.62,0,0,0,12.61-12.61V463.6A12.62,12.62,0,0,0,434.13,451a12.6,12.6,0,0,1-12.61-12.61v-4.22a12.61,12.61,0,0,0-12.62-12.61H394a12.62,12.62,0,0,1-12.61-12.61v-5.22A12.62,12.62,0,0,1,394,391.1h46.32A12.62,12.62,0,0,0,453,378.49v-6.21a12.61,12.61,0,0,0-12.62-12.61H376.29a12.61,12.61,0,0,1-12.61-12.62v-5.21a12.6,12.6,0,0,1,12.61-12.61h77.77a12.62,12.62,0,0,0,12.62-12.62V311.4a12.61,12.61,0,0,0-12.62-12.61h-52a12.62,12.62,0,0,1-12.62-12.61V281a12.62,12.62,0,0,1,12.62-12.61h60.25A12.62,12.62,0,0,0,475,255.74v-5.22A12.62,12.62,0,0,0,462.35,237.91Z" transform="translate(-180.97 -177.03)"/><path class="cls-3" d="M283.39,491.55v-1a14.72,14.72,0,0,1,14.72-14.72h47.17A14.72,14.72,0,0,0,360,461.11v-1a14.72,14.72,0,0,0-14.72-14.72H310a14.72,14.72,0,0,1-14.72-14.72v-1A14.73,14.73,0,0,0,280.54,415H232.67a14.72,14.72,0,0,1,0-29.44h61.58A14.72,14.72,0,0,0,309,370.79v-2a14.72,14.72,0,0,0-14.72-14.72H252.14a14.73,14.73,0,0,1-14.72-14.73v-1a14.72,14.72,0,0,1,14.72-14.72H325.7a14.72,14.72,0,0,0,14.72-14.73v-1A14.72,14.72,0,0,0,325.7,293.2H278a14.72,14.72,0,0,1-14.72-14.72v-1A14.72,14.72,0,0,1,278,262.76h56A14.72,14.72,0,0,0,348.71,248v-1A14.72,14.72,0,0,0,334,232.32H298.11a14.72,14.72,0,0,1-14.72-14.72v-1A14.71,14.71,0,0,0,269,201.9a179.06,179.06,0,0,0-6.39,304.37h6.1A14.72,14.72,0,0,0,283.39,491.55Z" transform="translate(-180.97 -177.03)"/><path class="cls-4" d="M434.15,396.7h0a6.32,6.32,0,0,1,6.31,6.31v28.81a6.31,6.31,0,0,1-6.31,6.3h0a6.3,6.3,0,0,1-6.3-6.3V403A6.31,6.31,0,0,1,434.15,396.7Z" transform="translate(-180.97 -177.03)"/><path class="cls-5" d="M399,389.9a64.43,64.43,0,1,1-64.42-64.42" transform="translate(-180.97 -177.03)"/><path class="cls-5" d="M372.22,390.19a37.9,37.9,0,1,1-37.89-37.89" transform="translate(-180.97 -177.03)"/><rect class="cls-4" x="166.25" y="97.33" width="19.61" height="100.14" rx="7"/><rect class="cls-4" x="191.46" y="97.33" width="19.61" height="100.14" rx="7"/><circle class="cls-4" cx="188.66" cy="63.72" r="22.41"/><rect class="cls-4" x="195.66" y="182.06" width="80.53" height="15.41" rx="7"/><path class="cls-4" d="M410.94,396.9h0a7,7,0,0,1,7-7h32.21a7,7,0,0,1,7,7h0a7,7,0,0,1-7,7H418A7,7,0,0,1,410.94,396.9Z" transform="translate(-180.97 -177.03)"/><circle class="cls-6" cx="253.19" cy="269.79" r="11.35"/><path class="cls-1" d="M376.89,659.49" transform="translate(-180.97 -177.03)"/></g></svg>